<svg width="45" height="35" viewBox="0 0 45 35" fill="none" xmlns="http://www.w3.org/2000/svg">
<path d="M10.1039 34.92L0.261784 28.9046C0.0519262 28.7767 -0.0465086 28.5252 0.0211653 28.2887L5.47199 9.14857C5.51711 8.98725 5.634 8.85668 5.78917 8.79243C5.94571 8.72749 6.12002 8.73842 6.26494 8.82045L11.6932 11.8665C11.9557 12.0155 12.05 12.3477 11.9024 12.6116C11.7534 12.8741 11.4211 12.967 11.1566 12.8207L6.33398 10.1138L1.18598 28.1875L9.95214 33.544L12.0336 16.886C12.0719 16.5852 12.3474 16.376 12.6447 16.4109C12.9448 16.4485 13.1567 16.7219 13.1198 17.0213L11.0336 33.7108L21.8737 30.7523V27.7664C21.8737 27.4643 22.1184 27.2196 22.4205 27.2196C22.7227 27.2196 22.9674 27.4643 22.9674 27.7664V30.7523L33.8062 33.7108L31.7206 17.0213C31.683 16.7219 31.8963 16.4485 32.195 16.4109C32.4862 16.376 32.7692 16.5852 32.8068 16.886L34.8889 33.544L43.6551 28.1861L38.5071 10.111L33.6845 12.818C33.4193 12.967 33.0864 12.8741 32.9387 12.6095C32.7911 12.3457 32.8854 12.0121 33.1479 11.8644L38.5748 8.81977C38.7224 8.73843 38.8961 8.72886 39.0519 8.79106C39.2071 8.856 39.324 8.98725 39.3691 9.14789L44.8199 28.288C44.8869 28.5231 44.7885 28.7754 44.5793 28.9039L34.7358 34.9193C34.7263 34.9255 34.714 34.9234 34.703 34.9289C34.6244 34.9706 34.541 35 34.4515 35C34.4036 35 34.3551 34.9932 34.3072 34.9802L22.4205 31.7366L10.5339 34.9802C10.486 34.9932 10.4375 35 10.3896 35C10.3001 35 10.2167 34.9706 10.1367 34.9303C10.1271 34.9234 10.1141 34.9269 10.1039 34.92ZM22.05 25.5591C21.6857 25.2221 13.1239 17.2312 13.1239 9.29759C13.1239 4.08396 17.2069 0.000972802 22.4205 0.000972802C27.6342 0.000972802 31.7172 4.08396 31.7172 9.29759C31.7172 17.3713 23.152 25.231 22.7883 25.5626C22.683 25.6562 22.5518 25.7034 22.4205 25.7034C22.2872 25.7034 22.1546 25.6555 22.05 25.5591ZM22.4205 1.09469C17.7449 1.09469 14.2176 4.62057 14.2176 9.29759C14.2176 15.8579 20.782 22.7722 22.424 24.3984C24.0686 22.7907 30.6234 15.9659 30.6234 9.29759C30.6234 4.62057 27.0962 1.09469 22.4205 1.09469ZM27.3423 9.29759C27.3423 12.0114 25.1343 14.2193 22.4205 14.2193C19.7068 14.2193 17.4988 12.0114 17.4988 9.29759C17.4988 6.5838 19.7068 4.37585 22.4205 4.37585C25.1343 4.37585 27.3423 6.5838 27.3423 9.29759ZM22.4205 13.1256C24.5314 13.1256 26.2486 11.4085 26.2486 9.29759C26.2486 7.18671 24.5314 5.46957 22.4205 5.46957C20.3097 5.46957 18.5925 7.18671 18.5925 9.29759C18.5925 11.4085 20.3097 13.1256 22.4205 13.1256Z" fill="#E73E7E"/>
</svg>
