<svg width="42" height="35" viewBox="0 0 42 35" fill="none" xmlns="http://www.w3.org/2000/svg">
<g clip-path="url(#clip0_219_927)">
<path d="M21.927 0.451981L41.2709 12.1223C41.4349 12.2221 41.5354 12.3991 41.5354 12.5905V33.2851C41.5354 34.2291 40.7637 34.998 39.8142 34.998H1.72119C0.771731 34.998 0 34.2291 0 33.2851V12.5905C0 12.3991 0.100482 12.2221 0.264535 12.1223L19.6098 0.451981C20.2441 -0.131092 21.2927 -0.131092 21.927 0.451981ZM20.225 1.35632L1.38419 12.7238L15.0327 20.8567C15.2918 21.0119 15.3772 21.3475 15.2227 21.6073C15.1202 21.7788 14.9384 21.8738 14.7524 21.8738C14.6574 21.8738 14.5597 21.8499 14.4722 21.7973L1.08138 13.8243V33.2393L19.6398 20.8964C20.1894 20.4541 21.3439 20.4541 21.9325 20.9237L40.454 33.2447V13.8243L27.0618 21.7973C26.9744 21.8499 26.878 21.8738 26.783 21.8738C26.597 21.8738 26.4152 21.7788 26.3127 21.6073C26.1582 21.3468 26.2436 21.0119 26.5027 20.8567L40.1498 12.7238L21.3091 1.35632C21.2722 1.33308 21.2366 1.30574 21.2052 1.27566C21.0883 1.15809 20.9331 1.09384 20.7677 1.09384C20.6023 1.09384 20.4471 1.15809 20.3289 1.27566C20.2974 1.30574 20.2632 1.33308 20.225 1.35632ZM39.4588 33.9044L21.2892 21.8068C21.063 21.6298 20.4738 21.6291 20.2844 21.7795L2.06775 33.9044H39.4588ZM7.09664 14.218C6.79451 14.218 6.5498 13.9733 6.5498 13.6712C6.5498 13.3691 6.79451 13.1244 7.09664 13.1244H34.4387C34.7409 13.1244 34.9856 13.3691 34.9856 13.6712C34.9856 13.9733 34.7409 14.218 34.4387 14.218H7.09664Z" fill="#E73E7E"/>
</g>
<defs>
<clipPath id="clip0_219_927">
<rect width="41.56" height="35" fill="white" transform="matrix(1 0 0 -1 0 35)"/>
</clipPath>
</defs>
</svg>
