<svg width="41" height="35" viewBox="0 0 41 35" fill="none" xmlns="http://www.w3.org/2000/svg">
<path d="M8.20312 0H32.2656H38.8281C39.7783 0 40.4688 0.69043 40.4688 1.64062V33.3594C40.4688 34.3096 39.7783 35 38.8281 35H32.2656H8.20312H1.64062C0.69043 35 0 34.3096 0 33.3594V1.64062C0 0.69043 0.69043 0 1.64062 0H8.20312ZM1.09375 33.3594C1.09375 33.7019 1.29814 33.9062 1.64062 33.9062H7.65625V1.09375H1.64062C1.29814 1.09375 1.09375 1.29815 1.09375 1.64062V33.3594ZM8.75 33.9062H31.7188V1.09375H8.75V33.9062ZM39.375 1.64062C39.375 1.29815 39.1706 1.09375 38.8281 1.09375H32.8125V33.9062H38.8281C39.1706 33.9062 39.375 33.7019 39.375 33.3594V1.64062ZM16.1622 11.0291L26.006 17.5916C26.1584 17.6935 26.25 17.8644 26.25 18.0469C26.25 18.2294 26.1584 18.4003 26.006 18.5021L16.1622 25.0646C16.0706 25.1255 15.9653 25.1562 15.8594 25.1562C15.7705 25.1562 15.6823 25.1344 15.601 25.092C15.4239 24.9963 15.3125 24.8117 15.3125 24.6094V11.4844C15.3125 11.282 15.4239 11.0975 15.6003 11.0018C15.7787 10.9067 15.9947 10.9177 16.1622 11.0291ZM16.4062 23.5881L24.7174 18.0469L16.4062 12.5057V23.5881ZM5.46875 8.75C5.7709 8.75 6.01562 8.99473 6.01562 9.29688C6.01562 9.59902 5.7709 9.84375 5.46875 9.84375H3.28125C2.9791 9.84375 2.73438 9.59902 2.73438 9.29688C2.73438 8.99473 2.9791 8.75 3.28125 8.75H5.46875ZM3.28125 5.46875C2.9791 5.46875 2.73438 5.22402 2.73438 4.92188C2.73438 4.61973 2.9791 4.375 3.28125 4.375H5.46875C5.7709 4.375 6.01562 4.61973 6.01562 4.92188C6.01562 5.22402 5.7709 5.46875 5.46875 5.46875H3.28125ZM5.46875 13.125C5.7709 13.125 6.01562 13.3697 6.01562 13.6719C6.01562 13.974 5.7709 14.2188 5.46875 14.2188H3.28125C2.9791 14.2188 2.73438 13.974 2.73438 13.6719C2.73438 13.3697 2.9791 13.125 3.28125 13.125H5.46875ZM5.46875 17.5C5.7709 17.5 6.01562 17.7447 6.01562 18.0469C6.01562 18.349 5.7709 18.5938 5.46875 18.5938H3.28125C2.9791 18.5938 2.73438 18.349 2.73438 18.0469C2.73438 17.7447 2.9791 17.5 3.28125 17.5H5.46875ZM5.46875 21.875C5.7709 21.875 6.01562 22.1197 6.01562 22.4219C6.01562 22.724 5.7709 22.9688 5.46875 22.9688H3.28125C2.9791 22.9688 2.73438 22.724 2.73438 22.4219C2.73438 22.1197 2.9791 21.875 3.28125 21.875H5.46875ZM5.46875 26.25C5.7709 26.25 6.01562 26.4947 6.01562 26.7969C6.01562 27.099 5.7709 27.3438 5.46875 27.3438H3.28125C2.9791 27.3438 2.73438 27.099 2.73438 26.7969C2.73438 26.4947 2.9791 26.25 3.28125 26.25H5.46875ZM5.46875 30.625C5.7709 30.625 6.01562 30.8697 6.01562 31.1719C6.01562 31.474 5.7709 31.7188 5.46875 31.7188H3.28125C2.9791 31.7188 2.73438 31.474 2.73438 31.1719C2.73438 30.8697 2.9791 30.625 3.28125 30.625H5.46875ZM35 9.84375C34.6979 9.84375 34.4531 9.59902 34.4531 9.29688C34.4531 8.99473 34.6979 8.75 35 8.75H37.1875C37.4896 8.75 37.7344 8.99473 37.7344 9.29688C37.7344 9.59902 37.4896 9.84375 37.1875 9.84375H35ZM35 5.46875C34.6979 5.46875 34.4531 5.22402 34.4531 4.92188C34.4531 4.61973 34.6979 4.375 35 4.375H37.1875C37.4896 4.375 37.7344 4.61973 37.7344 4.92188C37.7344 5.22402 37.4896 5.46875 37.1875 5.46875H35ZM35 14.2188C34.6979 14.2188 34.4531 13.974 34.4531 13.6719C34.4531 13.3697 34.6979 13.125 35 13.125H37.1875C37.4896 13.125 37.7344 13.3697 37.7344 13.6719C37.7344 13.974 37.4896 14.2188 37.1875 14.2188H35ZM35 18.5938C34.6979 18.5938 34.4531 18.349 34.4531 18.0469C34.4531 17.7447 34.6979 17.5 35 17.5H37.1875C37.4896 17.5 37.7344 17.7447 37.7344 18.0469C37.7344 18.349 37.4896 18.5938 37.1875 18.5938H35ZM35 22.9688C34.6979 22.9688 34.4531 22.724 34.4531 22.4219C34.4531 22.1197 34.6979 21.875 35 21.875H37.1875C37.4896 21.875 37.7344 22.1197 37.7344 22.4219C37.7344 22.724 37.4896 22.9688 37.1875 22.9688H35ZM35 27.3438C34.6979 27.3438 34.4531 27.099 34.4531 26.7969C34.4531 26.4947 34.6979 26.25 35 26.25H37.1875C37.4896 26.25 37.7344 26.4947 37.7344 26.7969C37.7344 27.099 37.4896 27.3438 37.1875 27.3438H35ZM37.1875 30.625C37.4896 30.625 37.7344 30.8697 37.7344 31.1719C37.7344 31.474 37.4896 31.7188 37.1875 31.7188H35C34.6979 31.7188 34.4531 31.474 34.4531 31.1719C34.4531 30.8697 34.6979 30.625 35 30.625H37.1875Z" fill="#939393"/>
</svg>
