<svg width="35" height="35" viewBox="0 0 35 35" fill="none" xmlns="http://www.w3.org/2000/svg">
<path d="M1.64062 35C0.73623 35 0 34.2638 0 33.3594V1.64062C0 0.736229 0.73623 0 1.64062 0H24.6094C25.5138 0 26.25 0.736229 26.25 1.64062V7.10938C26.25 7.41152 26.0053 7.65625 25.7031 7.65625C25.401 7.65625 25.1562 7.41152 25.1562 7.10938V1.64062C25.1562 1.33848 24.9115 1.09375 24.6094 1.09375H1.64062C1.33848 1.09375 1.09375 1.33848 1.09375 1.64062V33.3594C1.09375 33.6615 1.33848 33.9062 1.64062 33.9062H16.9531C17.2553 33.9062 17.5 34.151 17.5 34.4531C17.5 34.7553 17.2553 35 16.9531 35H1.64062ZM19.6875 11.4844C19.6875 10.58 20.4237 9.84375 21.3281 9.84375H33.3594C34.2638 9.84375 35 10.58 35 11.4844V33.3594C35 34.2638 34.2638 35 33.3594 35H21.3281C20.4237 35 19.6875 34.2638 19.6875 33.3594V11.4844ZM33.9062 11.4844C33.9062 11.1822 33.6615 10.9375 33.3594 10.9375H21.3281C21.026 10.9375 20.7812 11.1822 20.7812 11.4844V33.3594C20.7812 33.6615 21.026 33.9062 21.3281 33.9062H33.3594C33.6615 33.9062 33.9062 33.6615 33.9062 33.3594V11.4844ZM12.0312 30.625C12.0312 30.0214 12.5214 29.5312 13.125 29.5312C13.7286 29.5312 14.2188 30.0214 14.2188 30.625C14.2188 31.2286 13.7286 31.7188 13.125 31.7188C12.5214 31.7188 12.0312 31.2286 12.0312 30.625ZM26.25 30.625C26.25 30.0214 26.7401 29.5312 27.3438 29.5312C27.9474 29.5312 28.4375 30.0214 28.4375 30.625C28.4375 31.2286 27.9474 31.7188 27.3438 31.7188C26.7401 31.7188 26.25 31.2286 26.25 30.625Z" fill="#939393"/>
</svg>
