<svg width="46" height="35" viewBox="0 0 46 35" fill="none" xmlns="http://www.w3.org/2000/svg">
<path d="M38.9942 15.3378C43.7315 16.8458 45.9375 19.2705 45.9375 22.9688C45.9375 25.3791 44.3864 27.8031 41.5625 29.817V34.4531C41.5625 34.6172 41.4894 34.7724 41.3615 34.8763C41.2638 34.9576 41.14 35 41.0156 35C40.9787 35 40.9425 34.9966 40.9062 34.9891C40.8058 34.9692 38.4932 34.4784 36.4492 32.3189C36.2578 32.3641 36.0644 32.4167 35.8695 32.47C35.244 32.6389 34.5967 32.8125 33.9062 32.8125C30.8424 32.8125 28.6891 32.1487 26.4722 30.519C26.2295 30.3393 26.1769 29.9981 26.356 29.7541C26.5357 29.5114 26.8755 29.4581 27.1209 29.6372C29.1307 31.1151 31.0974 31.7188 33.9062 31.7188C34.4518 31.7188 35.0273 31.5636 35.5852 31.4139C35.9078 31.3271 36.2264 31.2416 36.5381 31.1814C36.7268 31.1466 36.9216 31.2122 37.0494 31.3558C38.2778 32.7394 39.6703 33.4154 40.4688 33.7128V29.5312C40.4688 29.3508 40.5576 29.1833 40.706 29.0808C42.2502 28.0178 44.8438 25.8111 44.8438 22.9688C44.8438 19.7729 42.9372 17.742 38.6627 16.3803C38.3756 16.288 38.217 15.9811 38.3072 15.6933C38.3995 15.4055 38.7058 15.2482 38.9942 15.3378ZM36.0938 14.7656C36.0938 22.9455 29.1389 28.443 18.7886 28.443C17.3687 28.443 15.8033 28.1955 14.4197 27.9385C11.226 31.431 7.49355 33.1276 7.33359 33.1987C7.26113 33.2302 7.18457 33.2466 7.10938 33.2466C7.00547 33.2466 6.90293 33.2172 6.81201 33.1591C6.65684 33.0572 6.5625 32.8856 6.5625 32.6997V25.442C3.5123 23.2894 0 19.7326 0 14.7677C0 6.4873 8.01172 0 18.2403 0C28.4177 0 36.0938 6.34785 36.0938 14.7656ZM18.7872 27.3492C28.4847 27.3492 35 22.2927 35 14.7656C35 6.97129 27.7956 1.09375 18.2403 1.09375C8.62559 1.09375 1.09375 7.0998 1.09375 14.7677C1.09375 19.3867 4.53359 22.7206 7.41904 24.7058C7.56738 24.8083 7.65625 24.9758 7.65625 25.1562V31.8083C8.93252 31.1158 11.5678 29.5094 13.81 26.9808C13.9378 26.8372 14.1326 26.7729 14.3213 26.8064C15.7261 27.0744 17.3544 27.3492 18.7872 27.3492ZM18.0469 12.5781C19.2534 12.5781 20.2344 13.5591 20.2344 14.7656C20.2344 15.9722 19.2534 16.9531 18.0469 16.9531C16.8403 16.9531 15.8594 15.9722 15.8594 14.7656C15.8594 13.5591 16.8403 12.5781 18.0469 12.5781ZM18.0469 15.8594C18.6498 15.8594 19.1406 15.3692 19.1406 14.7656C19.1406 14.162 18.6498 13.6719 18.0469 13.6719C17.4439 13.6719 16.9531 14.162 16.9531 14.7656C16.9531 15.3692 17.4439 15.8594 18.0469 15.8594ZM25.7031 12.5781C26.9097 12.5781 27.8906 13.5591 27.8906 14.7656C27.8906 15.9722 26.9097 16.9531 25.7031 16.9531C24.4966 16.9531 23.5156 15.9722 23.5156 14.7656C23.5156 13.5591 24.4966 12.5781 25.7031 12.5781ZM25.7031 15.8594C26.3061 15.8594 26.7969 15.3692 26.7969 14.7656C26.7969 14.162 26.3061 13.6719 25.7031 13.6719C25.1002 13.6719 24.6094 14.162 24.6094 14.7656C24.6094 15.3692 25.1002 15.8594 25.7031 15.8594ZM10.3906 12.682C11.5972 12.682 12.5781 13.663 12.5781 14.8695C12.5781 16.0761 11.5972 17.057 10.3906 17.057C9.18408 17.057 8.20312 16.0761 8.20312 14.8695C8.20312 13.663 9.18408 12.682 10.3906 12.682ZM10.3906 15.9633C10.9936 15.9633 11.4844 15.4731 11.4844 14.8695C11.4844 14.2659 10.9936 13.7758 10.3906 13.7758C9.78769 13.7758 9.29688 14.2659 9.29688 14.8695C9.29688 15.4731 9.78769 15.9633 10.3906 15.9633Z" fill="#FF214F"/>
</svg>
