<svg width="34" height="35" viewBox="0 0 34 35" fill="none" xmlns="http://www.w3.org/2000/svg">
<path d="M31.1719 12.0312H22.9688V21.875H31.1719C31.474 21.875 31.7188 22.1197 31.7188 22.4219C31.7188 22.724 31.474 22.9688 31.1719 22.9688H22.9688V32.2656C22.9688 32.5678 22.724 32.8125 22.4219 32.8125C22.1197 32.8125 21.875 32.5678 21.875 32.2656V22.9688H12.0312V32.2656C12.0312 32.5678 11.7865 32.8125 11.4844 32.8125C11.1822 32.8125 10.9375 32.5678 10.9375 32.2656V22.9688H2.73438C2.43223 22.9688 2.1875 22.724 2.1875 22.4219C2.1875 22.1197 2.43223 21.875 2.73438 21.875H10.9375V12.0312H2.73438C2.43223 12.0312 2.1875 11.7865 2.1875 11.4844C2.1875 11.1822 2.43223 10.9375 2.73438 10.9375H10.9375V2.73438C10.9375 2.43223 11.1822 2.1875 11.4844 2.1875C11.7865 2.1875 12.0312 2.43223 12.0312 2.73438V10.9375H21.875V2.73438C21.875 2.43223 22.1197 2.1875 22.4219 2.1875C22.724 2.1875 22.9688 2.43223 22.9688 2.73438V10.9375H31.1719C31.474 10.9375 31.7188 11.1822 31.7188 11.4844C31.7188 11.7865 31.474 12.0312 31.1719 12.0312ZM21.875 21.875V12.0312H12.0312V21.875H21.875ZM33.9062 33.3594C33.9062 34.2638 33.17 35 32.2656 35H1.64062C0.73623 35 0 34.2638 0 33.3594V1.64062C0 0.736229 0.73623 0 1.64062 0H32.2656C33.17 0 33.9062 0.736229 33.9062 1.64062V33.3594ZM1.09375 33.3594C1.09375 33.6615 1.33984 33.9062 1.64062 33.9062H32.2656C32.5664 33.9062 32.8125 33.6615 32.8125 33.3594V1.64062C32.8125 1.33848 32.5664 1.09375 32.2656 1.09375H1.64062C1.33984 1.09375 1.09375 1.33848 1.09375 1.64062V33.3594Z" fill="#939393"/>
</svg>
