<svg width="66" height="26" viewBox="0 0 66 26" fill="none" xmlns="http://www.w3.org/2000/svg">
<g opacity="0.3">
<path d="M17.7315 6.57726L18.2167 6.09212L17.7219 5.61685C16.4994 4.4426 14.8514 3.53711 12.5586 3.53711C8.42216 3.53711 4.93555 6.90381 4.93555 11.0644C4.93555 15.225 8.42216 18.5916 12.5586 18.5916C14.7734 18.5916 16.4823 17.8575 17.8242 16.4687C19.2313 15.0585 19.6367 13.1189 19.6367 11.6166C19.6367 11.1476 19.5972 10.6973 19.5206 10.314L19.4125 9.77351H11.8862V12.9959H16.2166C16.062 13.5308 15.8292 13.9181 15.545 14.2027C14.9812 14.7599 14.1264 15.3767 12.5586 15.3767C10.1805 15.3767 8.31253 13.466 8.31253 11.0644C8.31253 8.66285 10.1805 6.75212 12.5586 6.75212C13.8462 6.75212 14.7777 7.25481 15.4787 7.91072L15.9536 8.35518L16.4136 7.89522L17.7315 6.57726Z" fill="black" stroke="black" stroke-width="1.34483"/>
<path d="M24.3617 18.5835C27.1312 18.5835 29.3856 16.4146 29.3856 13.5008C29.3856 10.5708 27.1297 8.41797 24.3617 8.41797C21.5938 8.41797 19.3379 10.5708 19.3379 13.5008C19.3379 16.4146 21.5923 18.5835 24.3617 18.5835ZM24.3617 11.5004C25.2708 11.5004 26.1338 12.2508 26.1338 13.5008C26.1338 14.7385 25.2684 15.5011 24.3617 15.5011C23.4563 15.5011 22.5897 14.7324 22.5897 13.5008C22.5897 12.2569 23.4539 11.5004 24.3617 11.5004Z" fill="black" stroke="black" stroke-width="1.34483"/>
<path d="M34.121 15.5011H34.1172C33.2118 15.5011 32.3451 14.7324 32.3451 13.5008C32.3451 12.2569 33.2094 11.5004 34.1172 11.5004C35.0262 11.5004 35.8892 12.2508 35.8892 13.5008C35.8892 14.7421 35.0214 15.5061 34.121 15.5011ZM34.1099 18.5835C36.8793 18.5835 39.1337 16.4146 39.1337 13.5008C39.1337 10.5708 36.8778 8.41797 34.1099 8.41797C31.3418 8.41797 29.0859 10.5708 29.0859 13.5008C29.0859 16.4153 31.3485 18.5835 34.1099 18.5835Z" fill="black" stroke="black" stroke-width="1.34483"/>
<path d="M48.6467 9.35565V8.68326H45.4611V8.79311C44.968 8.55841 44.3833 8.41083 43.7406 8.41083C41.1552 8.41083 38.8418 10.6683 38.8418 13.5157C38.8418 15.4226 39.8854 17.0552 41.3551 17.9211L41.2961 17.9456L39.6101 18.6451L38.9888 18.9028L39.2467 19.5239C39.8051 20.8691 41.2887 22.545 43.7774 22.545C45.042 22.545 46.2761 22.1734 47.1969 21.2815C48.1232 20.3841 48.6467 19.0432 48.6467 17.2781V9.35565ZM42.1741 18.3072C42.6719 18.4869 43.2001 18.5838 43.7406 18.5838C44.3509 18.5838 44.9113 18.4522 45.3911 18.2349C45.3126 18.5838 45.1744 18.8365 45.0099 19.0133C44.7578 19.2842 44.3642 19.4626 43.7774 19.4626C42.9598 19.4626 42.4146 18.882 42.1741 18.3072ZM43.9099 11.5006C44.7815 11.5006 45.5936 12.2612 45.5936 13.5231C45.5936 14.76 44.7907 15.5087 43.9099 15.5087C42.975 15.5087 42.1231 14.7253 42.1231 13.5231C42.1231 12.29 42.9833 11.5006 43.9099 11.5006ZM52.0407 4.68023V4.00781H48.7595V18.3261H52.0407V4.68023Z" fill="black" stroke="black" stroke-width="1.34483"/>
<path d="M59.3695 14.3996L58.8152 14.03L58.4405 14.5809C58.0315 15.1824 57.5348 15.5162 56.8245 15.5162C56.4384 15.5162 56.1436 15.4283 55.9103 15.2812C55.8475 15.2416 55.7863 15.1959 55.7269 15.1434L60.8371 13.0253L61.449 12.7716L61.2046 12.156L61.0083 11.6616C60.6023 10.579 59.3139 8.42578 56.6037 8.42578C53.929 8.42578 51.8301 10.5449 51.8301 13.5086C51.8301 16.3305 53.9121 18.5914 56.8171 18.5914C59.152 18.5914 60.503 17.1577 61.0563 16.336L61.4338 15.7757L60.8716 15.4009L59.3695 14.3996ZM57.0684 11.5214L55.3333 12.24C55.6735 11.7251 56.2394 11.4714 56.6699 11.4714C56.8181 11.4714 56.9511 11.49 57.0684 11.5214Z" fill="black" stroke="black" stroke-width="1.34483"/>
</g>
<path d="M12.558 17.9187C8.78084 17.9187 5.60742 14.841 5.60742 11.0638C5.60742 7.28668 8.78084 4.20898 12.558 4.20898C14.6491 4.20898 16.1364 5.02627 17.2555 6.10126L15.9376 7.41921C15.135 6.6682 14.0453 6.07916 12.558 6.07916C9.79692 6.07916 7.63958 8.30276 7.63958 11.0638C7.63958 13.8249 9.79692 16.0486 12.558 16.0486C14.3472 16.0486 15.3633 15.327 16.0186 14.6791C16.556 14.1415 16.9021 13.3758 17.0346 12.3229H12.558V10.4454H18.8606C18.9269 10.7767 18.9637 11.1816 18.9637 11.6161C18.9637 13.0223 18.5809 14.76 17.3439 15.997C16.1364 17.2487 14.6049 17.9187 12.558 17.9187ZM28.7125 13.501C28.7125 16.0412 26.7613 17.9113 24.361 17.9113C21.9607 17.9113 20.0096 16.0412 20.0096 13.501C20.0096 10.946 21.9607 9.0906 24.361 9.0906C26.7613 9.0906 28.7125 10.946 28.7125 13.501ZM26.8055 13.501C26.8055 11.9106 25.6716 10.8282 24.361 10.8282C23.0504 10.8282 21.9165 11.918 21.9165 13.501C21.9165 15.0693 23.0504 16.1737 24.361 16.1737C25.6716 16.1737 26.8055 15.0766 26.8055 13.501ZM38.4607 13.501C38.4607 16.0412 36.5095 17.9113 34.1093 17.9113C31.7163 17.9113 29.7578 16.0412 29.7578 13.501C29.7578 10.946 31.7089 9.0906 34.1093 9.0906C36.5095 9.0906 38.4607 10.946 38.4607 13.501ZM36.5611 13.501C36.5611 11.9106 35.4272 10.8282 34.1166 10.8282C32.806 10.8282 31.6721 11.918 31.6721 13.501C31.6721 15.0693 32.806 16.1737 34.1166 16.1737C35.4272 16.1811 36.5611 15.0766 36.5611 13.501ZM47.9738 9.35562V17.2781C47.9738 20.5399 46.0521 21.8726 43.777 21.8726C41.6343 21.8726 40.3532 20.4368 39.8672 19.2661L41.5533 18.5666C41.8552 19.2882 42.5915 20.135 43.777 20.135C45.2348 20.135 46.1331 19.2293 46.1331 17.5432V16.91H46.0668C45.6324 17.4474 44.793 17.9113 43.7401 17.9113C41.5313 17.9113 39.5138 15.9897 39.5138 13.5157C39.5138 11.0271 41.5386 9.08325 43.7401 9.08325C44.793 9.08325 45.6324 9.55448 46.0668 10.0698H46.1331V9.35562H47.9738ZM46.2656 13.5231C46.2656 11.9695 45.2274 10.8282 43.9095 10.8282C42.5694 10.8282 41.4502 11.9621 41.4502 13.5231C41.4502 15.0619 42.5694 16.1811 43.9095 16.1811C45.2274 16.1811 46.2656 15.0619 46.2656 13.5231ZM51.3679 4.6802V17.6537H49.4314V4.6802H51.3679ZM58.9958 14.9588L60.4979 15.9602C60.0119 16.6818 58.8413 17.9188 56.8164 17.9188C54.3057 17.9188 52.5018 15.9823 52.5018 13.5084C52.5018 10.8871 54.3278 9.09795 56.6029 9.09795C58.8927 9.09795 60.0119 10.9166 60.3801 11.9033L60.5789 12.4039L54.6812 14.8484C55.1304 15.732 55.8372 16.1884 56.8238 16.1884C57.8104 16.1884 58.4952 15.6951 58.9958 14.9588ZM54.3646 13.3684L58.3111 11.7339C58.0902 11.1816 57.4423 10.7988 56.6692 10.7988C55.6825 10.7988 54.3131 11.6676 54.3646 13.3684Z" fill="white"/>
</svg>
